<svg width="672" height="133" viewBox="0 0 672 133" fill="none" xmlns="http://www.w3.org/2000/svg">
<path d="M18.6668 29.4167H0V11.9944H32.1996C41.5334 12.0988 49.6741 13.7061 56.6219 16.8165C63.2102 19.6706 69.1208 23.885 73.9662 29.1835C78.543 34.2556 82.0835 40.1739 84.3885 46.6051C89.0547 59.4156 89.0547 73.4612 84.3885 86.2717C82.0842 92.7032 78.5436 98.6216 73.9662 103.693C69.1206 108.992 63.21 113.206 56.6219 116.06C49.6727 119.171 41.532 120.778 32.1996 120.882H0V44.5052L18.6668 29.4167ZM18.6668 29.4167V103.46H31.4222C39.613 103.46 46.4316 101.642 51.8777 98.0061C57.115 94.6007 61.3553 89.8671 64.1661 84.2881C66.9221 78.7442 68.3344 72.6294 68.2887 66.4384C68.3359 60.2569 66.9515 54.1482 64.2441 48.5909C61.4649 42.9902 57.2175 38.2489 51.955 34.8729C46.4571 31.2368 39.6128 29.4181 31.4222 29.4167L18.6668 29.4167Z" fill="url(#paint0_linear_293_504)"/>
<path d="M115.316 11.9944V120.882H96.6499V44.5052L115.316 29.4167H96.6499V11.9944H115.316Z" fill="url(#paint1_linear_293_504)"/>
<path d="M219.237 110.149C214.225 114.054 208.647 117.175 202.697 119.405C196.169 121.95 189.221 123.243 182.214 123.216C172.882 123.216 164.69 121.582 157.638 118.316C150.946 115.314 144.957 110.942 140.06 105.482C135.395 100.196 131.826 94.0365 129.56 87.3604C127.237 80.6299 126.054 73.5586 126.06 66.4384C126.06 62.7116 126.372 58.9912 126.993 55.3166C127.619 51.6239 128.609 48.0024 129.949 44.5052H151.727C149.337 48.2467 147.625 52.3803 146.671 56.7163C145.688 61.0766 145.373 65.5611 145.738 70.016C146.101 74.4796 147.15 78.8606 148.848 83.0046C150.511 87.1303 152.939 90.9042 156.005 94.1271C159.179 97.4238 162.989 100.043 167.204 101.827C172.006 103.823 177.17 104.803 182.37 104.705C188.78 104.93 195.113 103.252 200.57 99.8826V78.8827H175.059V61.4604H219.237V110.149ZM138.971 28.6385C143.821 22.7934 149.903 18.0926 156.781 14.8725C163.988 11.3993 172.466 9.66225 182.214 9.66132C188.038 9.66429 193.821 10.6367 199.325 12.5387C204.861 14.4244 210.059 17.1812 214.726 20.7052L203.837 35.9496C201.182 33.6467 198.158 31.8063 194.893 30.5053C190.918 28.8938 186.659 28.1003 182.37 28.1722C175.421 28.1722 169.458 29.5461 164.482 32.2941C159.68 34.8844 155.571 38.5926 152.504 43.1055L138.971 28.6385Z" fill="url(#paint2_linear_293_504)"/>
<path d="M248.876 11.9944V120.882H230.209V44.5052L248.876 29.4167H230.209V11.9944H248.876Z" fill="url(#paint3_linear_293_504)"/>
<path d="M261.63 120.882V44.5052L280.297 29.4167H261.63V11.9944H332.096V29.4167H280.297L280.297 63.6383H320.896V81.0606H280.297V120.882H261.63Z" fill="#F9F9F9"/>
<path d="M342.038 103.46V11.9944H360.704V86.816L342.038 103.46ZM342.038 120.882V103.46H412.504V120.882H342.038Z" fill="#F9F9F9"/>
<path d="M522.138 11.9944H541.582L570.203 79.9713L595.248 23.8164H598.514L623.403 79.9713L651.87 11.9944H671.469L625.581 122.438H622.314L596.803 63.7942L571.293 122.438H568.026L559.937 103.149L566.782 87.9047H553.715L522.138 11.9944Z" fill="#F9F9F9"/>
<path d="M525.742 54.8851C522.279 40.0112 513.387 26.9667 500.807 18.308C499.751 17.5821 498.682 16.8957 497.6 16.2621L494.511 27.5479L492.333 35.5076C496.059 38.4024 499.264 41.911 501.811 45.8827C504.357 49.8446 506.227 54.203 507.341 58.7791C508.008 61.4565 508.354 64.2038 508.371 66.963C508.383 68.9354 508.224 70.9052 507.896 72.8501C507.03 77.7345 505.179 82.3917 502.457 86.5386C499.272 91.2852 495.103 95.2917 490.234 98.2864C489.68 98.6428 489.125 98.986 488.571 99.316C486.293 100.691 483.894 101.853 481.403 102.788C480.024 103.303 478.613 103.731 477.179 104.068C476.242 104.292 475.318 104.464 474.394 104.596C472.693 104.833 470.977 104.961 469.259 104.979C466.059 105.039 462.865 104.657 459.769 103.844C455.176 102.63 450.887 100.472 447.176 97.5077C443.474 94.5946 440.281 91.0888 437.725 87.1325C435.153 83.1505 433.27 78.764 432.154 74.1569C431.497 71.4915 431.155 68.7579 431.138 66.0126C431.094 59.0418 433.11 52.2133 436.933 46.3843C439.652 42.2618 443.154 38.7141 447.242 35.9431L444.707 26.6767L442.213 17.5557C441.276 18.0968 440.325 18.6777 439.375 19.2848C431.349 24.446 425.22 30.3024 420.987 36.8538C416.99 42.8313 414.28 49.5743 413.028 56.655C411.776 63.7357 412.009 70.9994 413.714 77.985C413.846 78.5393 413.978 79.0936 414.136 79.635C415.794 85.8967 418.412 91.8634 421.898 97.3228C422.479 98.2335 423.099 99.1312 423.746 100.002C425.783 102.846 428.076 105.497 430.597 107.922C432.309 109.605 434.121 111.183 436.022 112.648C441.237 116.72 447.17 119.778 453.512 121.663C453.908 121.769 454.304 121.888 454.7 121.993C459.445 123.26 464.35 123.829 469.259 123.683C471.677 123.618 474.088 123.407 476.48 123.05C476.717 123.01 476.942 122.983 477.179 122.931C484.664 121.716 492.298 118.606 500.081 113.598C502.561 112.005 504.945 110.268 507.222 108.398C510.118 106.022 512.775 103.369 515.156 100.478C516.324 99.0737 517.409 97.6015 518.403 96.0689C519.665 94.13 520.816 92.1203 521.848 90.0497C523.369 87.011 524.581 83.827 525.465 80.5457C525.897 78.9725 526.245 77.3775 526.508 75.7674C527.645 68.8251 527.385 61.7255 525.742 54.8851Z" fill="url(#paint4_linear_293_504)"/>
<path opacity="0.36" d="M469.26 104.979C466.059 105.039 462.865 104.657 459.769 103.844C455.177 102.63 450.888 100.472 447.176 97.5076C446.226 96.753 445.315 95.9691 444.444 95.1558H420.575C421.002 95.8849 421.441 96.6087 421.899 97.3228C422.479 98.2335 423.1 99.1312 423.746 100.002C425.784 102.846 428.077 105.497 430.597 107.922H445.473L453.512 121.663C453.908 121.769 454.304 121.888 454.7 121.993C459.446 123.259 464.35 123.829 469.26 123.683C471.677 123.618 474.088 123.407 476.48 123.049C476.718 123.01 476.942 122.983 477.18 122.931V104.068C476.243 104.292 475.319 104.464 474.395 104.596C472.693 104.833 470.978 104.961 469.26 104.979Z" fill="#F9F9F9"/>
<path opacity="0.36" d="M494.559 95.1557C493.175 96.2764 491.731 97.3214 490.234 98.2863C489.68 98.6428 489.125 98.986 488.571 99.316C486.293 100.69 483.894 101.853 481.403 102.788L483.396 108.398H507.223C510.118 106.021 512.775 103.369 515.156 100.478C516.324 99.0736 517.409 97.6014 518.403 96.0688C518.6 95.7654 518.77 95.4598 518.96 95.1557L494.559 95.1557Z" fill="#F9F9F9"/>
<path d="M527.947 100.478H488.981L488.571 99.316L469.26 45.078V132.87L463.808 123.551L450.014 100.002H411.51L417.622 89.429L431.139 66.013L469.26 0L508.371 66.963L521.849 90.05L527.947 100.478Z" fill="#F9F9F9"/>
<defs>
<linearGradient id="paint0_linear_293_504" x1="43.9441" y1="23.7714" x2="43.9441" y2="112.346" gradientUnits="userSpaceOnUse">
<stop stop-color="#08B5F4"/>
<stop offset="1" stop-color="#0052FF"/>
</linearGradient>
<linearGradient id="paint1_linear_293_504" x1="105.983" y1="23.7714" x2="105.983" y2="112.346" gradientUnits="userSpaceOnUse">
<stop stop-color="#08B5F4"/>
<stop offset="1" stop-color="#0052FF"/>
</linearGradient>
<linearGradient id="paint2_linear_293_504" x1="172.649" y1="21.9431" x2="172.649" y2="114.313" gradientUnits="userSpaceOnUse">
<stop stop-color="#08B5F4"/>
<stop offset="1" stop-color="#0052FF"/>
</linearGradient>
<linearGradient id="paint3_linear_293_504" x1="239.542" y1="23.7714" x2="239.542" y2="112.346" gradientUnits="userSpaceOnUse">
<stop stop-color="#08B5F4"/>
<stop offset="1" stop-color="#0052FF"/>
</linearGradient>
<linearGradient id="paint4_linear_293_504" x1="469.719" y1="27.8828" x2="469.719" y2="115.282" gradientUnits="userSpaceOnUse">
<stop stop-color="#08B5F4"/>
<stop offset="1" stop-color="#0052FF"/>
</linearGradient>
</defs>
</svg>
