<svg width="118" height="133" viewBox="0 0 118 133" fill="none" xmlns="http://www.w3.org/2000/svg">
<path d="M115.007 54.9501C111.545 40.0763 102.652 27.0317 90.0726 18.373C89.0168 17.6471 87.9476 16.9607 86.8651 16.3271L83.7762 27.6129L81.5983 35.5726C85.324 38.4675 88.5291 41.976 91.0761 45.9477C93.6229 49.9096 95.492 54.268 96.6068 58.8441C97.2737 61.5215 97.6193 64.2688 97.6362 67.028C97.6488 69.0004 97.4898 70.9702 97.1611 72.9151C96.2952 77.7995 94.4449 82.4567 91.7226 86.6036C88.5373 91.3502 84.3689 95.3567 79.4997 98.3514C78.9451 98.7078 78.3906 99.051 77.8362 99.381C75.5586 100.756 73.1593 101.918 70.6687 102.853C69.2891 103.368 67.8783 103.796 66.4448 104.133C65.5077 104.357 64.5838 104.529 63.6598 104.661C61.9581 104.898 60.2429 105.026 58.5248 105.044C55.3241 105.104 52.1303 104.722 49.0342 103.909C44.4418 102.695 40.1528 100.537 36.4413 97.5727C32.7399 94.6596 29.5464 91.1538 26.9903 87.1975C24.4186 83.2155 22.5355 78.829 21.42 74.2219C20.7621 71.5565 20.4209 68.8229 20.4035 66.0776C20.3593 59.1068 22.3752 52.2783 26.1982 46.4493C28.917 42.3268 32.4199 38.7791 36.5074 36.0081L33.9728 26.7417L31.4782 17.6207C30.541 18.1618 29.5907 18.7427 28.6403 19.3498C20.6146 24.511 14.4854 30.3674 10.2525 36.9188C6.25582 42.8963 3.54545 49.6393 2.29338 56.72C1.04131 63.8007 1.27487 71.0644 2.97935 78.05C3.11148 78.6043 3.24367 79.1586 3.4019 79.7C5.05942 85.9617 7.67774 91.9285 11.1636 97.3878C11.7443 98.2985 12.3647 99.1962 13.0115 100.067C15.0488 102.911 17.342 105.562 19.8622 107.987C21.5744 109.67 23.3861 111.248 25.2875 112.713C30.5025 116.785 36.4351 119.843 42.7774 121.728C43.1735 121.834 43.5692 121.953 43.9653 122.058C48.7109 123.325 53.6154 123.894 58.5248 123.748C60.9422 123.683 63.3534 123.472 65.7452 123.115C65.9827 123.075 66.2073 123.048 66.4448 122.996C73.9291 121.781 81.563 118.671 89.3468 113.663C91.826 112.07 94.2104 110.333 96.4878 108.463C99.3832 106.087 102.04 103.434 104.421 100.543C105.59 99.1387 106.674 97.6665 107.668 96.1339C108.931 94.195 110.081 92.1853 111.114 90.1147C112.635 87.076 113.846 83.892 114.73 80.6107C115.162 79.0375 115.51 77.4425 115.773 75.8324C116.911 68.8901 116.651 61.7905 115.007 54.9501Z" fill="url(#paint0_linear_264_601)"/>
<path opacity="0.36" d="M58.5249 105.044C55.3242 105.104 52.1304 104.722 49.0342 103.909C44.4418 102.695 40.153 100.537 36.4415 97.5726C35.4908 96.818 34.58 96.0341 33.709 95.2208H9.83984C10.2672 95.9499 10.7061 96.6737 11.1637 97.3878C11.7444 98.2985 12.3647 99.1962 13.0115 100.067C15.0489 102.911 17.3421 105.562 19.8622 107.987H34.7386L42.7775 121.728C43.1735 121.834 43.5693 121.953 43.9653 122.058C48.711 123.324 53.6155 123.894 58.5249 123.748C60.9423 123.683 63.3535 123.472 65.7452 123.115C65.9827 123.075 66.2074 123.048 66.4449 122.996V104.133C65.5077 104.357 64.5838 104.529 63.6599 104.661C61.9582 104.898 60.243 105.026 58.5249 105.044Z" fill="black"/>
<path opacity="0.36" d="M83.8242 95.2207C82.4401 96.3414 80.9965 97.3864 79.4997 98.3513C78.9451 98.7078 78.3906 99.051 77.8362 99.381C75.5585 100.755 73.1593 101.918 70.6687 102.853L72.6619 108.463H96.4879C99.3833 106.086 102.04 103.434 104.421 100.543C105.59 99.1386 106.674 97.6664 107.668 96.1339C107.865 95.8304 108.036 95.5248 108.226 95.2207L83.8242 95.2207Z" fill="black"/>
<path d="M117.212 100.543H78.246L77.836 99.381L58.525 45.143V132.935L53.073 123.616L39.279 100.067H0.775024L6.88702 89.494L20.404 66.078L58.525 0.0650024L97.636 67.028L111.114 90.115L117.212 100.543Z" fill="white"/>
<defs>
<linearGradient id="paint0_linear_264_601" x1="60.0695" y1="18.8921" x2="58.0913" y2="106.429" gradientUnits="userSpaceOnUse">
<stop stop-color="#D20AFF"/>
<stop offset="1" stop-color="#4A3FFF"/>
</linearGradient>
</defs>
</svg>
