<svg width="613" height="364" viewBox="0 0 613 364" fill="none" xmlns="http://www.w3.org/2000/svg">
<path d="M154.654 162.285H145.715V153.948H161.135C165.605 153.998 169.504 154.767 172.831 156.255C175.986 157.621 178.817 159.638 181.138 162.174C183.329 164.601 185.025 167.433 186.129 170.511C188.364 176.641 188.364 183.362 186.129 189.493C185.025 192.57 183.33 195.403 181.138 197.83C178.817 200.365 175.986 202.382 172.831 203.748C169.503 205.236 165.605 206.006 161.135 206.055H145.715V169.506L154.654 162.285ZM154.654 162.285V197.718H160.763C164.686 197.718 167.951 196.848 170.559 195.108C173.067 193.479 175.098 191.213 176.444 188.543C177.764 185.89 178.44 182.964 178.419 180.002C178.441 177.043 177.778 174.12 176.482 171.461C175.151 168.781 173.116 166.512 170.596 164.896C167.963 163.156 164.685 162.286 160.763 162.285L154.654 162.285Z" fill="url(#paint0_linear_2_3)"/>
<path d="M200.94 153.948V206.055H192.001V169.506L200.94 162.285H192.001V153.948H200.94Z" fill="url(#paint1_linear_2_3)"/>
<path d="M250.709 200.919C248.308 202.788 245.637 204.281 242.788 205.348C239.661 206.566 236.334 207.185 232.978 207.172C228.509 207.172 224.586 206.39 221.208 204.827C218.003 203.391 215.136 201.298 212.79 198.686C210.556 196.156 208.847 193.209 207.762 190.014C206.649 186.793 206.083 183.409 206.086 180.002C206.085 178.218 206.235 176.438 206.533 174.679C206.832 172.912 207.306 171.179 207.948 169.506H218.378C217.233 171.296 216.413 173.274 215.956 175.349C215.485 177.436 215.335 179.582 215.51 181.714C215.683 183.85 216.186 185.946 216.999 187.929C217.795 189.904 218.958 191.71 220.426 193.252C221.947 194.83 223.771 196.083 225.79 196.936C228.089 197.892 230.563 198.361 233.053 198.314C236.122 198.422 239.155 197.619 241.769 196.006V185.957H229.552V177.619H250.709V200.919ZM212.269 161.913C214.591 159.116 217.504 156.866 220.798 155.325C224.25 153.663 228.31 152.832 232.978 152.831C235.767 152.833 238.537 153.298 241.173 154.208C243.824 155.111 246.313 156.43 248.548 158.116L243.334 165.411C242.062 164.309 240.614 163.429 239.05 162.806C237.146 162.035 235.107 161.655 233.053 161.69C229.725 161.69 226.869 162.347 224.486 163.662C222.186 164.902 220.219 166.676 218.75 168.836L212.269 161.913Z" fill="url(#paint2_linear_2_3)"/>
<path d="M264.903 153.948V206.055H255.963V169.506L264.903 162.285H255.963V153.948H264.903Z" fill="url(#paint3_linear_2_3)"/>
<path d="M271.011 206.055V169.506L279.951 162.285H271.011V153.948H304.758V162.285H279.951L279.951 178.662H299.394V186.999H279.951V206.055H271.011Z" fill="white"/>
<path d="M309.519 197.718V153.948H318.458V189.753L309.519 197.718ZM309.519 206.055V197.718H343.265V206.055H309.519Z" fill="white"/>
<path d="M397.496 174.473C395.838 167.355 391.579 161.113 385.554 156.969C385.049 156.622 384.537 156.293 384.018 155.99L382.539 161.391L381.496 165.2C383.28 166.585 384.815 168.264 386.035 170.165C387.255 172.061 388.15 174.146 388.684 176.336C389.003 177.618 389.168 178.932 389.177 180.253C389.183 181.197 389.106 182.139 388.949 183.07C388.534 185.407 387.648 187.636 386.345 189.62C384.819 191.892 382.823 193.809 380.491 195.242C380.225 195.413 379.96 195.577 379.694 195.735C378.603 196.393 377.454 196.949 376.262 197.396C375.601 197.643 374.925 197.848 374.239 198.009C373.79 198.116 373.348 198.199 372.905 198.262C372.09 198.375 371.269 198.436 370.446 198.445C368.913 198.474 367.384 198.291 365.901 197.902C363.701 197.321 361.647 196.288 359.87 194.87C358.097 193.476 356.568 191.798 355.344 189.905C354.112 187.999 353.21 185.9 352.676 183.695C352.361 182.42 352.198 181.112 352.189 179.798C352.168 176.462 353.134 173.194 354.964 170.405C356.267 168.432 357.944 166.734 359.902 165.408L358.688 160.974L357.493 156.609C357.044 156.868 356.589 157.146 356.134 157.437C352.29 159.906 349.355 162.709 347.328 165.844C345.414 168.705 344.116 171.931 343.516 175.32C342.917 178.708 343.029 182.184 343.845 185.527C343.908 185.792 343.971 186.058 344.047 186.317C344.841 189.313 346.095 192.169 347.764 194.781C348.042 195.217 348.339 195.647 348.649 196.063C349.625 197.424 350.723 198.693 351.93 199.854C352.75 200.659 353.618 201.414 354.528 202.115C357.026 204.064 359.867 205.527 362.904 206.429C363.094 206.48 363.284 206.537 363.473 206.587C365.746 207.193 368.095 207.465 370.446 207.396C371.604 207.365 372.758 207.263 373.904 207.093C374.017 207.074 374.125 207.061 374.239 207.036C377.823 206.455 381.479 204.966 385.207 202.57C386.394 201.807 387.536 200.976 388.627 200.081C390.013 198.944 391.286 197.675 392.426 196.291C392.986 195.619 393.505 194.915 393.981 194.181C394.586 193.253 395.137 192.292 395.631 191.301C396.359 189.846 396.94 188.323 397.363 186.753C397.57 186 397.737 185.236 397.862 184.466C398.407 181.144 398.283 177.746 397.496 174.473Z" fill="white"/>
<path d="M395.77 153.948H405.081L418.788 186.478L430.782 159.605H432.347L444.266 186.478L457.899 153.948H467.285L445.309 206.8H443.745L431.527 178.736L419.31 206.8H417.746L413.872 197.569L417.15 190.274H410.892L395.77 153.948Z" fill="white"/>
<path opacity="0.36" d="M370.446 198.445C368.913 198.474 367.384 198.291 365.901 197.902C363.701 197.321 361.647 196.288 359.87 194.87C359.415 194.509 358.979 194.133 358.561 193.744H347.13C347.335 194.093 347.545 194.439 347.764 194.781C348.042 195.217 348.34 195.647 348.649 196.063C349.625 197.424 350.723 198.693 351.93 199.854H359.054L362.904 206.429C363.094 206.48 363.284 206.537 363.473 206.587C365.746 207.193 368.095 207.465 370.446 207.396C371.604 207.365 372.758 207.263 373.904 207.093C374.017 207.074 374.125 207.061 374.239 207.036V198.009C373.79 198.116 373.348 198.199 372.905 198.262C372.09 198.375 371.269 198.436 370.446 198.445Z" fill="white"/>
<path opacity="0.36" d="M382.562 193.744C381.899 194.28 381.208 194.781 380.491 195.242C380.225 195.413 379.96 195.577 379.694 195.735C378.603 196.393 377.454 196.949 376.262 197.396L377.216 200.081H388.627C390.013 198.944 391.286 197.675 392.426 196.291C392.986 195.619 393.505 194.915 393.981 194.181C394.075 194.036 394.157 193.89 394.248 193.744L382.562 193.744Z" fill="white"/>
<path d="M398.552 196.291H379.89L379.694 195.735L370.446 169.78V211.792L367.835 207.332L361.229 196.063H342.789L345.716 191.004L352.19 179.798L370.446 148.208L389.176 180.253L395.631 191.301L398.552 196.291Z" fill="#FF9E16"/>
<defs>
<linearGradient id="paint0_linear_2_3" x1="166.76" y1="159.584" x2="166.76" y2="201.97" gradientUnits="userSpaceOnUse">
<stop stop-color="#5F26C2"/>
<stop offset="1" stop-color="#FF9E16"/>
</linearGradient>
<linearGradient id="paint1_linear_2_3" x1="196.471" y1="159.584" x2="196.471" y2="201.97" gradientUnits="userSpaceOnUse">
<stop stop-color="#5F26C2"/>
<stop offset="1" stop-color="#FF9E16"/>
</linearGradient>
<linearGradient id="paint2_linear_2_3" x1="228.397" y1="158.709" x2="228.397" y2="202.912" gradientUnits="userSpaceOnUse">
<stop stop-color="#5F26C2"/>
<stop offset="1" stop-color="#FF9E16"/>
</linearGradient>
<linearGradient id="paint3_linear_2_3" x1="260.433" y1="159.584" x2="260.433" y2="201.97" gradientUnits="userSpaceOnUse">
<stop stop-color="#5F26C2"/>
<stop offset="1" stop-color="#FF9E16"/>
</linearGradient>
</defs>
</svg>
